Coordinates
version=1
nRows=14
nColumns=40
inDegrees=yes

Units are S.I. units (second, meters, Newtons, ...)
Angles are in degrees.

endheader
time	pelvis_tilt	pelvis_list	pelvis_rotation	pelvis_tx	pelvis_ty	pelvis_tz	hip_flexion_r	hip_adduction_r	hip_rotation_r	knee_angle_r	knee_angle_r_beta	ankle_angle_r	subtalar_angle_r	mtp_angle_r	hip_flexion_l	hip_adduction_l	hip_rotation_l	knee_angle_l	knee_angle_l_beta	ankle_angle_l	subtalar_angle_l	mtp_angle_l	lumbar_extension	lumbar_bending	lumbar_rotation	arm_flex_r	arm_add_r	arm_rot_r	elbow_flex_r	pro_sup_r	wrist_flex_r	wrist_dev_r	arm_flex_l	arm_add_l	arm_rot_l	elbow_flex_l	pro_sup_l	wrist_flex_l	wrist_dev_l
     10.29500000	     -5.72075980	     -5.62627716	      3.98178086	      0.99040157	      0.91237962	      0.45107588	      5.81013382	     -1.37843225	    -12.50050040	     34.99222109	     34.99222109	     15.43215472	     -5.09753653	     -9.65789795	     31.90983023	     -6.32241804	      0.10741257	     29.00326625	     29.00326625	      5.96901355	    -14.96801960	      5.41279585	    -10.60953365	      3.55995576	      3.97039581	     43.39669918	    -11.81437396	     10.25868010	    115.58137689	     43.15945156	      0.00000000	      0.00000000	    -15.10162585	     -7.01719204	     -2.89919191	     27.43249513	     45.81719452	      0.00000000	      0.00000000
     10.30657143	     -5.79831557	     -5.47310486	      3.77217392	      0.99045963	      0.91366262	      0.44840107	      7.52747531	     -2.20893743	    -12.17390409	     38.69245957	     38.69245957	     13.31551337	     -6.51079397	    -10.80574020	     31.23409310	     -6.15837283	     -0.26994869	     28.87445563	     28.87445563	      6.69630618	    -14.73647863	      5.29689353	    -10.54978303	      3.37746264	      3.84087870	     42.11832161	    -11.97688835	     10.81010564	    116.22880547	     43.13301682	      0.00000000	      0.00000000	    -14.01274207	     -6.93553216	     -2.89289509	     27.99041252	     45.83717477	      0.00000000	      0.00000000
     10.31814286	     -5.76973689	     -5.39816176	      3.55373732	      0.99048271	      0.91506301	      0.44598403	      9.08005958	     -2.79896233	    -11.68088022	     41.95280594	     41.95280594	      9.50924845	     -9.42564684	    -15.53898857	     30.46787695	     -6.13502117	     -0.76219342	     28.77945383	     28.77945383	      7.57743049	    -14.30219342	      5.39956254	    -10.67141334	      3.27888303	      4.38121288	     40.22388701	    -13.06842226	     11.17470318	    118.17851754	     43.15953000	      0.00000000	      0.00000000	    -12.62796615	     -6.97226125	     -3.05534920	     29.20294323	     45.90396432	      0.00000000	      0.00000000
     10.32971429	     -5.64655877	     -5.21822251	      3.39783104	      0.99043803	      0.91651034	      0.44347171	     10.73577162	     -3.68718618	    -11.57495901	     45.68822443	     45.68822443	      7.36358512	    -10.50764472	    -15.39603390	     29.53521184	     -5.93992010	     -1.13711442	     28.55544443	     28.55544443	      8.17842613	    -14.06589135	      5.12199238	    -10.81375829	      3.13360807	      3.97068289	     38.87799926	    -12.83030907	     11.62646424	    117.85897032	     43.15771187	      0.00000000	      0.00000000	    -11.37032147	     -6.88957825	     -3.04135664	     29.73462202	     45.92375580	      0.00000000	      0.00000000
     10.34128571	     -5.77198069	     -5.10407470	      3.12894100	      0.99007822	      0.91756638	      0.44138299	     12.88160220	     -4.26679012	    -10.97033373	     49.47226614	     49.47226614	      5.13667906	    -12.47761190	    -14.39905374	     28.85039734	     -5.89200091	     -1.72714764	     28.23732870	     28.23732870	      8.59173689	    -13.66709478	      4.63345472	    -10.68304303	      2.99889372	      3.81249363	     37.16278976	    -13.20423622	     12.08385629	    117.57582883	     43.17822528	      0.00000000	      0.00000000	    -10.29622049	     -6.96496412	     -3.27455853	     30.74303720	     45.98070453	      0.00000000	      0.00000000
     10.35285714	     -5.62425644	     -4.93781382	      2.98818125	      0.98979912	      0.91887991	      0.43915722	     14.62382109	     -5.06164838	    -10.84438214	     52.96627367	     52.96627367	      3.09837721	    -13.58076147	    -13.70962720	     27.89152535	     -5.71379033	     -2.10676395	     27.95778259	     27.95778259	      9.09125944	    -13.39601053	      4.35047366	    -10.89682068	      2.86052688	      3.38449120	     35.55519368	    -13.19290104	     12.53119476	    117.14039884	     43.17863679	      0.00000000	      0.00000000	     -8.94614215	     -7.00951070	     -3.35235093	     31.47209743	     46.01460231	      0.00000000	      0.00000000
     10.36442857	     -5.67882736	     -4.87670164	      2.68568072	      0.98932261	      0.91988160	      0.43742017	     16.88085903	     -5.46711913	    -10.23173886	     56.69564537	     56.69564537	      2.74640994	    -14.25592307	     -8.02120503	     27.11135801	     -5.76601325	     -2.77856729	     27.56560771	     27.56560771	      9.22499397	    -12.92958312	      3.13315802	    -10.86934801	      2.76697963	      3.41935802	     33.40597528	    -13.76110961	     12.41514558	    116.70349356	     43.28533712	      0.00000000	      0.00000000	     -8.07690484	     -7.09395256	     -4.33337079	     33.76736570	     46.17868475	      0.00000000	      0.00000000
     10.37600000	     -5.59707701	     -4.72017216	      2.49030104	      0.98880521	      0.92103674	      0.43547457	     18.73849512	     -6.11414610	    -10.00202778	     59.69304875	     59.69304875	      1.12170536	    -15.35345210	     -7.29082088	     26.22420430	     -5.58914400	     -3.11335307	     27.24463270	     27.24463270	      9.59897658	    -12.76280253	      2.97685031	    -11.02299691	      2.64070964	      3.01987695	     31.55358316	    -13.90495708	     12.86275247	    115.70934964	     43.30301641	      0.00000000	      0.00000000	     -6.62205807	     -7.28066614	     -4.42707672	     34.42194594	     46.21465351	      0.00000000	      0.00000000
     10.38757143	     -5.57265798	     -4.72258843	      2.25083372	      0.98820205	      0.92209691	      0.43384617	     20.83373635	     -6.41169852	     -9.59304946	     62.75112238	     62.75112238	      1.46290075	    -15.58183879	     -1.70461018	     25.38944686	     -5.61685988	     -3.51169698	     26.85042746	     26.85042746	      9.81221030	    -12.54631316	      2.22177970	    -11.02269657	      2.66773312	      2.85712758	     29.56600606	    -14.19041206	     12.58984653	    113.79275626	     43.47854457	      0.00000000	      0.00000000	     -5.36977652	     -7.36427861	     -5.19489150	     35.91101917	     46.34475738	      0.00000000	      0.00000000
     10.39914286	     -5.51640052	     -4.65250184	      1.98733482	      0.98759230	      0.92319875	      0.43220155	     22.67868088	     -6.79062439	     -9.26600154	     65.08881175	     65.08881175	      0.49060458	    -16.45674678	     -1.24767039	     24.51835197	     -5.54850935	     -3.86359529	     26.48973326	     26.48973326	     10.19695219	    -12.36350259	      2.08106359	    -11.12057419	      2.64495027	      2.66700068	     27.49731242	    -14.63792831	     12.82472875	    112.22123220	     43.52382719	      0.00000000	      0.00000000	     -3.83182569	     -7.57449488	     -5.31487241	     36.73279111	     46.38438665	      0.00000000	      0.00000000
     10.41071429	     -5.39997774	     -4.68853979	      1.71696547	      0.98693465	      0.92437215	      0.43078472	     24.43065012	     -7.00593995	     -9.00795413	     67.11481153	     67.11481153	      0.17779907	    -16.93502338	      0.05220498	     23.63114288	     -5.62339773	     -4.24160889	     26.18624687	     26.18624687	     10.53666241	    -12.11591329	      1.78417635	    -11.27089184	      2.71138944	      2.64826190	     25.39785172	    -14.88424086	     12.21038610	    109.58853152	     43.65179979	      0.00000000	      0.00000000	     -2.26959178	     -7.79279650	     -5.49805799	     37.93094569	     46.43292226	      0.00000000	      0.00000000
     10.42228571	     -5.33132140	     -4.70604781	      1.43825210	      0.98620818	      0.92549267	      0.42940412	     26.18514552	     -7.19578078	     -8.73139428	     68.75260468	     68.75260468	      0.00483581	    -17.24638585	      0.81962054	     22.73797606	     -5.65091694	     -4.57899363	     25.77636695	     25.77636695	     10.91959123	    -11.88656583	      1.55117557	    -11.38025207	      2.78176420	      2.57653410	     23.39195963	    -15.25285214	     11.81461737	    107.08241538	     43.75903644	      0.00000000	      0.00000000	     -0.64073727	     -8.05046590	     -5.59739909	     39.05019333	     46.47126963	      0.00000000	      0.00000000
     10.43385714	     -5.26471543	     -4.71882163	      1.14499816	      0.98556344	      0.92657757	      0.42822966	     27.86152447	     -7.33965996	     -8.47892296	     69.99677837	     69.99677837	     -0.11004804	    -17.46275866	      1.01647100	     21.84111851	     -5.68009533	     -4.94798271	     25.36185118	     25.36185118	     11.27596794	    -11.68416673	      1.41613205	    -11.47061661	      2.83265631	      2.39385575	     21.19579883	    -15.51052972	     11.80850553	    104.94043370	     43.82732667	      0.00000000	      0.00000000	      0.96544738	     -8.38518662	     -5.67181344	     39.99052746	     46.50512406	      0.00000000	      0.00000000
     10.44542857	     -5.19505274	     -4.74874262	      0.81270697	      0.98488707	      0.92768938	      0.42721400	     29.46493056	     -7.38536687	     -8.19440259	     70.82688387	     70.82688387	     -0.07125945	    -17.47160780	      1.20901722	     20.90836416	     -5.75058820	     -5.37558770	     24.89499346	     24.89499346	     11.62153887	    -11.36512997	      1.23305495	    -11.57112619	      2.88596372	      2.54204058	     19.10025320	    -15.95191805	     11.25212352	    101.74165490	     43.94877429	      0.00000000	      0.00000000	      2.67252684	     -8.64013466	     -5.69303607	     41.15502847	     46.53574704	      0.00000000	      0.00000000
